<svg width="80" height="80" viewBox="0 0 80 80" fill="none" xmlns="http://www.w3.org/2000/svg">
<path d="M39.8203 79.1504C61.3535 79.1504 79.2735 61.2793 79.2735 39.7461C79.2735 18.2129 61.3047 0.341797 39.7715 0.341797C18.2871 0.341797 0.416016 18.2129 0.416016 39.7461C0.416016 61.2793 18.336 79.1504 39.8203 79.1504ZM17.3594 14.9902C20.9239 11.7188 25.2207 9.2285 29.9571 7.7148C27.5156 10.3516 25.4649 13.916 23.8535 18.2129C21.3633 17.3828 19.166 16.3086 17.3594 14.9902ZM49.7813 7.7637C54.4688 9.2773 58.7168 11.7676 62.2813 15.0391C60.4746 16.3086 58.3262 17.3828 55.836 18.2129C54.2246 13.916 52.1739 10.4004 49.7813 7.7637ZM42.6524 8.8867C45.5821 10.4492 48.2676 14.3555 50.2207 19.6289C47.877 20.0195 45.3867 20.3125 42.6524 20.4102V8.8867ZM29.4199 19.6289C31.4219 14.3555 34.0586 10.4492 36.9883 8.8867V20.4102C34.3028 20.3125 31.7637 20.0195 29.4199 19.6289ZM6.42188 36.9141C7.00778 30.2734 9.54688 24.1211 13.502 19.1406C15.7969 20.8984 18.7754 22.3633 22.1934 23.4863C21.168 27.5879 20.5332 32.0801 20.3379 36.9141H6.42188ZM59.3516 36.9141C59.1563 32.0801 58.5215 27.5879 57.4473 23.4863C60.8653 22.3633 63.8438 20.8984 66.1387 19.1406C70.0938 24.1699 72.6817 30.2734 73.2676 36.9141H59.3516ZM26.0996 36.9141C26.2949 32.666 26.8809 28.6133 27.8086 24.9512C30.6895 25.5371 33.7656 25.9277 36.9883 26.0742V36.9141H26.0996ZM42.6524 36.9141V26.0742C45.875 25.9277 49 25.5371 51.8809 24.9512C52.8086 28.6133 53.3946 32.666 53.5899 36.9141H42.6524ZM6.42188 42.5781H20.3379C20.5332 47.4609 21.168 52.0508 22.2422 56.1523C18.8731 57.2754 15.8946 58.7402 13.6485 60.498C9.59568 55.4199 7.00778 49.2676 6.42188 42.5781ZM26.0996 42.5781H36.9883V53.6133C33.8145 53.7598 30.6895 54.1016 27.8086 54.6875C26.8809 50.9766 26.2949 46.875 26.0996 42.5781ZM42.6524 53.6133V42.5781H53.5899C53.3946 46.875 52.8086 50.9766 51.8809 54.6875C48.9512 54.1016 45.875 53.7598 42.6524 53.6133ZM57.4473 56.1523C58.4727 52.0508 59.1563 47.4609 59.3516 42.5781H73.2676C72.6817 49.2676 70.0449 55.4199 66.041 60.498C63.7461 58.7402 60.8164 57.2754 57.4473 56.1523ZM42.6524 59.2773C45.3379 59.375 47.877 59.6191 50.1719 60.0586C48.2188 65.2344 45.5821 69.043 42.6524 70.6055V59.2773ZM29.4688 60.0586C31.8125 59.6191 34.3516 59.375 36.9883 59.2773V70.6055C34.1074 69.043 31.4707 65.2344 29.4688 60.0586ZM55.7871 61.4746C58.2285 62.3047 60.377 63.3301 62.1836 64.5996C58.6192 67.7734 54.3711 70.2637 49.7324 71.7285C52.125 69.1406 54.1758 65.6738 55.7871 61.4746ZM17.5059 64.5996C19.3125 63.3301 21.461 62.3047 23.9024 61.4746C25.5137 65.6738 27.5645 69.1406 29.9082 71.7285C25.2696 70.2637 21.0703 67.7734 17.5059 64.5996Z" fill="black"/>
</svg>
