<svg width="100" height="101" viewBox="0 0 100 101" fill="none" xmlns="http://www.w3.org/2000/svg">
<path d="M49.8437 100.551C77.0898 100.551 99.6488 77.9434 99.6488 50.7461C99.6488 23.5 77.041 0.941406 49.7949 0.941406C22.5976 0.941406 0.0390625 23.5 0.0390625 50.7461C0.0390625 77.9434 22.6465 100.551 49.8437 100.551ZM20.6445 19.1055C25.5273 14.5645 31.4843 11.1465 38.0273 9.24221C34.6582 12.6602 31.7773 17.4941 29.6289 23.4512C26.1621 22.3281 23.1347 20.8633 20.6445 19.1055ZM61.709 9.29101C68.2031 11.1953 74.1113 14.6133 79.0429 19.1543C76.5527 20.9121 73.5254 22.3281 70.0586 23.4512C67.9101 17.543 65.0293 12.709 61.709 9.29101ZM35.9277 25.0625C38.6621 17.5918 42.4707 12.2207 46.6699 10.3652V26.1855C42.8125 26.0391 39.248 25.6484 35.9277 25.0625ZM53.0664 10.3652C57.2168 12.2207 61.0254 17.5918 63.7597 25.0625C60.4394 25.6484 56.875 26.0391 53.0664 26.1855V10.3652ZM6.77733 47.5234C7.46093 38.6367 10.9277 30.3848 16.2988 23.7441C19.3261 26.0391 23.2324 27.9434 27.7734 29.4082C26.3574 34.877 25.4785 40.9805 25.2343 47.5234H6.77733ZM74.4531 47.5234C74.209 40.9805 73.33 34.877 71.914 29.4082C76.455 27.9434 80.3613 26.0391 83.3398 23.793C88.7597 30.3848 92.2268 38.6367 92.9098 47.5234H74.4531ZM53.0664 47.5234V32.582C57.4609 32.4355 61.6601 31.8984 65.6152 31.0684C66.8847 36.0977 67.666 41.6641 67.9101 47.5234H53.0664ZM31.7773 47.5234C32.0215 41.6641 32.8515 36.0977 34.0722 31.0684C38.0273 31.8984 42.2265 32.4355 46.6699 32.582V47.5234H31.7773ZM6.77733 53.9199H25.2343C25.4785 60.6094 26.3574 66.7617 27.7734 72.2793C23.2812 73.7441 19.4238 75.6484 16.4453 77.8945C10.9765 71.2051 7.46093 62.9043 6.77733 53.9199ZM31.7773 53.9199H46.6699V69.1543C42.2754 69.3008 38.0761 69.8379 34.1699 70.6191C32.8515 65.541 31.9726 59.877 31.7773 53.9199ZM53.0664 69.1543V53.9199H67.9101C67.7148 59.877 66.8359 65.541 65.5176 70.6191C61.6601 69.8379 57.4121 69.3008 53.0664 69.1543ZM71.914 72.2793C73.33 66.7617 74.209 60.6094 74.4531 53.9199H92.9098C92.2268 62.9043 88.7109 71.2051 83.2422 77.8945C80.2636 75.6484 76.4062 73.7441 71.914 72.2793ZM53.0664 75.5508C56.8261 75.6973 60.3906 76.0391 63.6621 76.6738C60.9277 83.9492 57.1679 89.3203 53.0664 91.1758V75.5508ZM36.0254 76.6738C39.2968 76.0391 42.8613 75.6973 46.6699 75.5508V91.1758C42.5195 89.3203 38.7597 83.9492 36.0254 76.6738ZM70.0097 78.2363C73.4277 79.3594 76.4062 80.7754 78.8965 82.4844C74.0136 86.9277 68.2031 90.2969 61.7578 92.2012C65.0293 88.832 67.8613 84.0469 70.0097 78.2363ZM20.791 82.4844C23.2812 80.7754 26.2597 79.3594 29.6777 78.2363C31.8261 84.0469 34.6582 88.832 37.9785 92.2012C31.5332 90.2969 25.6738 86.9277 20.791 82.4844Z" fill="black"/>
</svg>
