<svg width="128" height="128" viewBox="0 0 128 128" fill="none" xmlns="http://www.w3.org/2000/svg">
<path d="M63.8222 127.32C98.6367 127.32 127.446 98.5118 127.446 63.7461C127.446 28.9316 98.5877 0.123047 63.7734 0.123047C29.0079 0.123047 0.248047 28.9316 0.248047 63.7461C0.248047 98.5118 29.0566 127.32 63.8222 127.32ZM25.4921 22.877C32.2304 16.5293 40.5312 11.793 49.7109 9.40044C45.0234 13.8438 40.9707 20.4844 37.9921 28.7852C33.1093 27.2715 28.9101 25.3184 25.4921 22.877ZM77.9825 9.40044C87.1622 11.8418 95.4138 16.5781 102.201 22.9258C98.7348 25.3184 94.5348 27.3203 89.7008 28.7852C86.7227 20.4844 82.67 13.8438 77.9825 9.40044ZM45.0722 30.5918C48.8808 19.9961 54.3007 12.5254 60.2578 10.3281V32.2031C54.789 32.0078 49.7109 31.4707 45.0722 30.5918ZM67.4355 10.3281C73.3925 12.5254 78.8126 19.9961 82.5723 30.5918C77.9825 31.4707 72.9042 32.0078 67.4355 32.2031V10.3281ZM7.76755 60.1328C8.54885 48.0234 13.2851 36.8906 20.6582 28.0527C24.6132 31.0312 29.789 33.5703 35.8925 35.4746C33.9394 42.7988 32.7675 51.0996 32.4746 60.1328H7.76755ZM95.1697 60.1328C94.9257 51.0996 93.7047 42.7988 91.7517 35.4746C97.8557 33.5703 103.08 31.0312 107.035 28.0527C114.408 36.9395 119.096 48.0234 119.877 60.1328H95.1697ZM39.8476 60.1328C40.0917 51.9297 41.2636 44.166 43.0214 37.3301C48.3437 38.4531 54.1542 39.1367 60.2578 39.332V60.1328H39.8476ZM67.4355 60.1328V39.332C73.4902 39.1367 79.3008 38.4531 84.6719 37.3301C86.4297 44.166 87.5527 51.9297 87.8457 60.1328H67.4355ZM7.76755 67.3105H32.4746C32.7187 76.4902 33.9394 84.8887 35.9414 92.3106C29.9355 94.1661 24.7597 96.6563 20.8046 99.6348C13.3339 90.6993 8.54885 79.5176 7.76755 67.3105ZM39.7988 67.3105H60.2578V88.4043C54.2031 88.6484 48.4414 89.3321 43.1191 90.4551C41.2636 83.4727 40.0917 75.5625 39.7988 67.3105ZM67.4355 88.4043V67.3105H87.8457C87.6015 75.5625 86.4296 83.4727 84.5742 90.4551C79.2519 89.3321 73.4902 88.6484 67.4355 88.4043ZM91.7517 92.3106C93.7047 84.8887 94.9257 76.4902 95.1697 67.3105H119.877C119.096 79.5176 114.311 90.6993 106.84 99.6348C102.934 96.6563 97.7577 94.1661 91.7517 92.3106ZM45.2187 97.1934C49.8085 96.3145 54.8378 95.7774 60.2578 95.5821V117.213C54.3496 115.016 48.9785 107.545 45.2187 97.1934ZM67.4355 95.5821C72.8554 95.7774 77.8848 96.3145 82.4258 97.1934C78.6661 107.545 73.2949 115.016 67.4355 117.213V95.5821ZM89.6527 98.9512C94.4377 100.465 98.5878 102.369 102.006 104.762C95.3168 110.963 87.1621 115.602 78.1777 117.994C82.7187 113.6 86.6738 107.106 89.6527 98.9512ZM25.6875 104.762C29.1054 102.369 33.2558 100.465 38.041 98.9512C40.9707 107.106 44.9257 113.6 49.5156 117.994C40.5312 115.602 32.3281 110.963 25.6875 104.762Z" fill="black"/>
</svg>
